# xmcd
#
# Track frame offsets: 
#        150
#        20012
#        36240
#        46670
#        66172
#        81952
#        93875
#        112890
#        125385
#        138822
#        158702
#
# Disc length: 2323 seconds
#
# Revision: 3
# Processed by: cddbd v1.5.1PL0 Copyright (c) Steve Scherf et al.
# Submitted via: ExactAudioCopy v0.90b4
#
DISCID=8209110b
DTITLE=Nanci Griffith - Late Night Grande Hotel
DYEAR=1991
DGENRE=Folk
TTITLE0=It's Just Another Morning Here
TTITLE1=Late Night Grande Hotel
TTITLE2=It's Too Late
TTITLE3=Fields Of Summer
TTITLE4=Heaven
TTITLE5=The Power Lines
TTITLE6=Hometown Streets
TTITLE7=Down 'N' Outer
TTITLE8=One Blade Shy Of A Sharp Edge
TTITLE9=The Sun, Moon, And Stars
TTITLE10=San Diego Serenade
EXTD=YEAR: 1991 ID3G: 2
EXTT0=
EXTT1=
EXTT2=
EXTT3=
EXTT4=
EXTT5=
EXTT6=
EXTT7=
EXTT8=
EXTT9=
EXTT10=
PLAYORDER=
